<svg width="147" height="92" xmlns="http://www.w3.org/2000/svg" style="vector-effect: non-scaling-stroke;" stroke="null" preserveAspectRatio="xMinYMin meet">
    <g id="fish">
      <path stroke="null" id="svg_1" d="m101.830389 75.287634c23.099197-3.775705 40.369624-18.646172 40.369624-36.479115 0-20.621156-23.207137-37.408519-51.865252-37.408519 -11.981359 0-29.683547 6.041127-38.426701 11.036675 -17.540278 10.049183-20.454663 16.961627-22.775376 20.737331l-27.632684-28.172565c0 0.232351 5.450979 17.193978 5.397009 36.653378 0 9.700656-2.320714 30.670339-5.397009 43.10112l30.007368-27.76595c-1.241312-2.033072 7.070081 5.344074 24.448449 13.185922 6.692291 3.020564 14.949714 4.821284 23.584927 5.576425 3.562026 0.348527 7.178021 0.464702 10.794017 0.464702 3.939816 0 7.771692-0.290439 11.495628-0.929404zM101.830389 75.345722" fill="#FF0000"/>
      <path stroke="null" id="svg_2" d="m101.830389 75.345722l0-0.058088c-3.723936 0.580878-7.555812 0.929404-11.495628 0.929404 -3.615996 0-7.231991-0.174263-10.794017-0.464702l-0.05397 0.464702c-3.562026 2.207335-5.774799 5.344074-11.549598 10.688148 15.273534 3.194827 27.254893-4.240407 33.893214-11.559465z" fill="#FF0000"/>
      <path stroke="#000000" id="svg_3" d="m29.132684 33.174006c2.374684-3.717617 5.235098-10.688148 22.775376-20.621156 8.743154-4.995548 26.445342-11.036675 38.426701-11.036675 28.658116 0 51.865252 16.729276 51.865252 37.408519 0 17.774855-17.270427 32.70341-40.369624 36.479115 -3.723936 0.580878-7.555812 0.929404-11.495628 0.929404 -3.615996 0-7.231991-0.174263-10.794017-0.464702 -8.635214-0.755141-16.892637-2.555862-23.530957-5.576425 -17.432338-7.958023-25.689761-15.335169-24.502419-13.302098" stroke-miterlimit="10" stroke-width="3" fill="none"/>
      <line stroke="#000000" id="svg_4" y2="56.989989" x2="31.507368" y1="84.755939" x1="1.5" stroke-miterlimit="10" stroke-width="3" fill="none"/>
      <line stroke="#000000" id="svg_5" y2="33.174006" x2="29.132684" y1="5.001441" x1="1.5" stroke-miterlimit="10" stroke-width="3" fill="none"/>
      <path stroke="#000000" id="svg_6" d="m1.5 84.755939c3.076295-12.430781 5.397009-33.458551 5.397009-43.10112 0.05397-19.401313-5.397009-36.421027-5.397009-36.653378 0 0 0 0 0 0M67.937176 86.905186" stroke-miterlimit="10" stroke-width="3" fill="none"/>
      <path stroke="#000000" id="svg_7" d="m67.937176 86.905186c15.327504 3.194827 27.254893-4.240407 33.947184-11.559465" stroke-miterlimit="10" stroke-width="3" fill="none"/>
      <path stroke="#000000" id="svg_8" d="m79.486774 76.217038c-3.562026 2.207335-5.774799 5.344074-11.549598 10.688148" stroke-miterlimit="10" stroke-width="3" fill="none"/>
      <path stroke="#000000" id="svg_9" d="m107.443278 24.983632c0.10794-1.510282-5.181128-15.683696-22.343616-16.380749 -17.162487-0.697053-11.171808 10.339622-5.774799 16.380749" stroke-miterlimit="10" stroke-width="3" fill="none"/>
      <path stroke="#000000" id="svg_10" d="m87.312436 60.939956c8.581244-2.8463 11.225778-9.003603 10.847987-15.335169" stroke-miterlimit="10" stroke-width="3" fill="none"/>
      <path stroke="#000000" id="svg_11" d="m94.814278 61.288483c8.581244-2.8463 11.225778-9.003603 10.847987-15.277082" stroke-miterlimit="10" stroke-width="3" fill="none"/>
      <path stroke="#000000" id="svg_12" d="m80.242355 60.939956c8.581244-2.8463 11.225778-9.003603 10.847987-15.335169" stroke-miterlimit="10" stroke-width="3" fill="none"/>
      <line stroke="#000000" id="svg_13" y2="30.792408" x2="138.044317" y1="30.792408" x1="115.376881" stroke-miterlimit="10" stroke-width="3" fill="none"/>
      <line stroke="#000000" id="svg_14" y2="42.700399" x2="126.710599" y1="51.065037" x1="116.995984" stroke-miterlimit="10" stroke-width="3" fill="none"/>
      <line stroke="#000000" id="svg_15" y2="51.065037" x2="126.710599" y1="42.700399" x1="116.995984" stroke-miterlimit="10" stroke-width="3" fill="none"/>
    </g>
</svg>