<svg xmlns="http://www.w3.org/2000/svg" version="1.2" baseProfile="tiny" x="0" y="0" width="263.7" height="50" overflow="inherit" xml:space="preserve" preserveAspectRatio="xMinYMin meet">
  <g id="fish">
    <path fill="#FF0000" d="M187.4 128.6c42.8-6.5 74.8-32.1 74.8-62.8 0-35.5-43-64.4-96.1-64.4-22.2 0-55 10.4-71.2 19C62.4 37.7 57 49.6 52.7 56.1L1.5 7.6c0 0.4 10.1 29.6 10 63.1C11.5 87.4 7.2 123.5 1.5 144.9l55.6-47.8c-2.3-3.5 13.1 9.2 45.3 22.7 12.4 5.2 27.7 8.3 43.7 9.6 6.6 0.6 13.3 0.8 20 0.8C173.4 130.2 180.5 129.7 187.4 128.6z"/>
    <path fill="#FF0000" d="M187.4 128.7l0-0.1c-6.9 1-14 1.6-21.3 1.6-6.7 0-13.4-0.3-20-0.8l-0.1 0.8c-6.6 3.8-10.7 9.2-21.4 18.4C152.9 154.1 175.1 141.3 187.4 128.7z"/>
    <path fill="none" stroke="#000000" stroke-width="3" stroke-miterlimit="10" d="M52.7 56.1c4.4-6.4 9.7-18.4 42.2-35.5 16.2-8.6 49-19 71.2-19 53.1 0 96.1 28.8 96.1 64.4 0 30.6-32 56.3-74.8 62.8-6.9 1-14 1.6-21.3 1.6-6.7 0-13.4-0.3-20-0.8-16-1.3-31.3-4.4-43.6-9.6C70.2 106.3 54.9 93.6 57.1 97.1"/>
    <line fill="none" stroke="#000000" stroke-width="3" stroke-miterlimit="10" x1="1.5" y1="144.9" x2="57.1" y2="97.1"/>
    <line fill="none" stroke="#000000" stroke-width="3" stroke-miterlimit="10" x1="1.5" y1="7.6" x2="52.7" y2="56.1"/>
    <path fill="none" stroke="#000000" stroke-width="3" stroke-miterlimit="10" d="M1.5 144.9c5.7-21.4 10-57.6 10-74.2C11.6 37.3 1.5 8 1.5 7.6c0 0 0 0 0 0"/>
    <path fill="none" stroke="#000000" stroke-width="3" stroke-miterlimit="10" d="M124.6 148.6c28.4 5.5 50.5-7.3 62.9-19.9"/>
    <path fill="none" stroke="#000000" stroke-width="3" stroke-miterlimit="10" d="M146 130.2c-6.6 3.8-10.7 9.2-21.4 18.4"/>
    <path fill="none" stroke="#000000" stroke-width="3" stroke-miterlimit="10" d="M197.8 42c0.2-2.6-9.6-27-41.4-28.2-31.8-1.2-20.7 17.8-10.7 28.2"/>
    <path fill="none" stroke="#000000" stroke-width="3" stroke-miterlimit="10" d="M160.5 103.9c15.9-4.9 20.8-15.5 20.1-26.4"/>
    <path fill="none" stroke="#000000" stroke-width="3" stroke-miterlimit="10" d="M174.4 104.5c15.9-4.9 20.8-15.5 20.1-26.3"/>
    <path fill="none" stroke="#000000" stroke-width="3" stroke-miterlimit="10" d="M147.4 103.9c15.9-4.9 20.8-15.5 20.1-26.4"/>
    <line fill="none" stroke="#000000" stroke-width="3" stroke-miterlimit="10" x1="212.5" y1="52" x2="254.5" y2="52"/>
    <line fill="none" stroke="#000000" stroke-width="3" stroke-miterlimit="10" x1="215.5" y1="86.9" x2="233.5" y2="72.5"/>
    <line fill="none" stroke="#000000" stroke-width="3" stroke-miterlimit="10" x1="215.5" y1="72.5" x2="233.5" y2="86.9"/>
  </g>
</svg>
