<?xml version="1.0" encoding="utf-8"?>
<!-- Generator: Adobe Illustrator 15.0.0, SVG Export Plug-In . SVG Version: 6.00 Build 0)  -->
<svg version="1.2" baseProfile="tiny" id="Layer_1" xmlns="http://www.w3.org/2000/svg" xmlns:xlink="http://www.w3.org/1999/xlink"
	 x="0px" y="0px" width="263.676px" height="151.415px" viewBox="0 0 263.676 151.415" overflow="inherit" xml:space="preserve">
<g id="XMLID_1_">
	<g>
		<path fill="#FF0000" d="M187.402,128.621c42.814-6.497,74.773-32.13,74.773-62.764c0-35.543-43.028-64.357-96.111-64.357
			c-22.251,0-54.984,10.426-71.219,19C62.348,37.663,57.023,49.615,52.667,56.05L1.5,7.635c0,0.368,10.088,29.617,10.026,63.125
			C11.499,87.346,7.205,123.472,1.5,144.924l55.641-47.808c-2.261-3.488,13.047,9.175,45.311,22.678
			c12.37,5.179,27.665,8.25,43.651,9.598c6.59,0.558,13.297,0.821,19.962,0.821C173.401,130.214,180.544,129.663,187.402,128.621z"
			/>
		<path fill="#FF0000" d="M187.424,128.743l-0.021-0.123c-6.858,1.042-14.001,1.593-21.338,1.593
			c-6.665,0-13.372-0.263-19.962-0.821l-0.09,0.821c-6.583,3.812-10.718,9.194-21.435,18.388
			C152.927,154.118,175.054,141.247,187.424,128.743z"/>
	</g>
	<g>
		<path fill="none" stroke="#000000" stroke-width="3" stroke-miterlimit="10" d="M52.667,56.05
			c4.356-6.436,9.68-18.388,42.178-35.55c16.235-8.575,48.968-19,71.219-19c53.083,0,96.111,28.813,96.111,64.357
			c0,30.634-31.959,56.267-74.773,62.764c-6.858,1.042-14.001,1.593-21.338,1.593c-6.665,0-13.372-0.263-19.962-0.821
			c-15.986-1.348-31.281-4.419-43.651-9.598C70.188,106.292,54.88,93.628,57.141,97.116"/>
		<line fill="none" stroke="#000000" stroke-width="3" stroke-miterlimit="10" x1="1.5" y1="144.924" x2="57.141" y2="97.116"/>
		<line fill="none" stroke="#000000" stroke-width="3" stroke-miterlimit="10" x1="1.5" y1="7.635" x2="52.667" y2="56.05"/>
		<path fill="none" stroke="#000000" stroke-width="3" stroke-miterlimit="10" d="M1.5,144.924
			c5.705-21.453,9.999-57.578,10.026-74.164C11.588,37.252,1.5,8.003,1.5,7.635c0-0.006,0-0.006,0-0.006"/>
		<path fill="none" stroke="#000000" stroke-width="3" stroke-miterlimit="10" d="M124.578,148.602
			c28.349,5.517,50.476-7.355,62.846-19.858"/>
		<path fill="none" stroke="#000000" stroke-width="3" stroke-miterlimit="10" d="M146.013,130.214
			c-6.583,3.812-10.718,9.194-21.435,18.388"/>
		<path fill="none" stroke="#000000" stroke-width="3" stroke-miterlimit="10" d="M197.795,41.953
			c0.146-2.574-9.604-26.969-41.41-28.195c-31.807-1.226-20.744,17.775-10.718,28.195"/>
		<path fill="none" stroke="#000000" stroke-width="3" stroke-miterlimit="10" d="M160.533,103.858
			c15.903-4.903,20.792-15.482,20.052-26.356"/>
		<path fill="none" stroke="#000000" stroke-width="3" stroke-miterlimit="10" d="M174.362,104.471
			c15.903-4.903,20.792-15.482,20.052-26.355"/>
		<path fill="none" stroke="#000000" stroke-width="3" stroke-miterlimit="10" d="M147.396,103.858
			c15.903-4.903,20.792-15.482,20.052-26.356"/>
	</g>
</g>
<line fill="none" stroke="#000000" stroke-width="3" stroke-miterlimit="10" x1="212.487" y1="52.013" x2="254.487" y2="52.013"/>
<line fill="none" stroke="#000000" stroke-width="3" stroke-miterlimit="10" x1="215.487" y1="86.909" x2="233.487" y2="72.505"/>
<line fill="none" stroke="#000000" stroke-width="3" stroke-miterlimit="10" x1="215.487" y1="72.505" x2="233.487" y2="86.909"/>
</svg>
