<?xml version="1.0" encoding="utf-8"?>
<!-- Generator: Adobe Illustrator 15.0.0, SVG Export Plug-In . SVG Version: 6.00 Build 0)  -->
<!DOCTYPE svg PUBLIC "-//W3C//DTD SVG 1.1//EN" "http://www.w3.org/Graphics/SVG/1.1/DTD/svg11.dtd">
<svg version="1.1" id="Layer_1" xmlns="http://www.w3.org/2000/svg" xmlns:xlink="http://www.w3.org/1999/xlink" x="0px" y="0px"
	 width="263.676px" height="151.414px" viewBox="0 0 263.676 151.414" enable-background="new 0 0 263.676 151.414"
	 xml:space="preserve">
<g id="XMLID_2_">
	<g>
		<path fill="#FFF200" d="M187.403,22.794c42.814,6.497,74.773,32.129,74.773,62.764c0,35.543-43.029,64.356-96.111,64.356
			c-22.251,0-54.984-10.426-71.219-18.994c-32.498-17.168-37.822-29.12-42.178-35.556L1.5,143.779
			c0-0.368,10.088-29.616,10.026-63.119C11.499,64.068,7.205,27.943,1.5,6.49l55.641,47.814
			c-2.261,3.481,13.047-9.176,45.311-22.685c12.37-5.179,27.665-8.25,43.651-9.598c6.589-0.558,13.296-0.821,19.962-0.821
			C173.401,21.201,180.543,21.752,187.403,22.794z"/>
		<path fill="#FFF200" d="M187.423,22.671l-0.021,0.123c-6.859-1.042-14.002-1.593-21.338-1.593c-6.666,0-13.373,0.263-19.962,0.821
			l-0.091-0.821c-6.582-3.812-10.717-9.194-21.435-18.388C152.927-2.704,175.053,10.174,187.423,22.671z"/>
	</g>
	<g>
		<path fill="none" stroke="#000000" stroke-width="3" stroke-miterlimit="10" d="M57.141,54.305
			c-2.261,3.481,13.047-9.176,45.311-22.685c12.37-5.179,27.665-8.25,43.651-9.598c6.589-0.558,13.296-0.821,19.962-0.821
			c7.336,0,14.479,0.551,21.338,1.593c42.814,6.497,74.773,32.129,74.773,62.764c0,35.543-43.029,64.356-96.111,64.356
			c-22.251,0-54.984-10.426-71.219-18.994c-32.498-17.168-37.822-29.12-42.178-35.556"/>
		<line fill="none" stroke="#000000" stroke-width="3" stroke-miterlimit="10" x1="57.141" y1="54.305" x2="1.5" y2="6.49"/>
		<line fill="none" stroke="#000000" stroke-width="3" stroke-miterlimit="10" x1="52.667" y1="95.364" x2="1.5" y2="143.779"/>
		<path fill="none" stroke="#000000" stroke-width="3" stroke-miterlimit="10" d="M1.5,143.785c0,0,0,0,0-0.006
			c0-0.368,10.088-29.616,10.026-63.119C11.499,64.068,7.205,27.943,1.5,6.49"/>
		<path fill="none" stroke="#000000" stroke-width="3" stroke-miterlimit="10" d="M187.423,22.671
			c-12.37-12.498-34.496-25.375-62.846-19.858"/>
		<path fill="none" stroke="#000000" stroke-width="3" stroke-miterlimit="10" d="M124.578,2.813
			c10.718,9.194,14.853,14.575,21.435,18.388"/>
		<path fill="none" stroke="#000000" stroke-width="3" stroke-miterlimit="10" d="M145.667,109.462
			c-10.025,10.419-21.089,29.42,10.718,28.2c31.807-1.231,41.556-25.626,41.411-28.2"/>
		<path fill="none" stroke="#000000" stroke-width="3" stroke-miterlimit="10" d="M180.585,73.918
			c0.739-10.873-4.149-21.458-20.053-26.355"/>
		<path fill="none" stroke="#000000" stroke-width="3" stroke-miterlimit="10" d="M194.414,73.299
			c0.74-10.873-4.148-21.452-20.052-26.355"/>
		<path fill="none" stroke="#000000" stroke-width="3" stroke-miterlimit="10" d="M167.448,73.918
			c0.739-10.873-4.148-21.458-20.052-26.355"/>
	</g>
</g>
<path fill="none" stroke="#000000" stroke-width="3" stroke-miterlimit="10" d="M207.211,94.842
	c15.9-5.053,42.445-4.053,49.842,13.179"/>
<ellipse stroke="#000000" stroke-width="3" stroke-miterlimit="10" cx="232.101" cy="67.567" rx="8.989" ry="7.354"/>
</svg>
