<?xml version="1.0" encoding="utf-8"?>
<!-- Generator: Adobe Illustrator 15.0.0, SVG Export Plug-In . SVG Version: 6.00 Build 0)  -->
<!DOCTYPE svg PUBLIC "-//W3C//DTD SVG 1.1//EN" "http://www.w3.org/Graphics/SVG/1.1/DTD/svg11.dtd">
<svg version="1.1" id="Layer_1" xmlns="http://www.w3.org/2000/svg" xmlns:xlink="http://www.w3.org/1999/xlink" x="0px" y="0px"
	 width="263.676px" height="151.411px" viewBox="0 0 263.676 151.411" enable-background="new 0 0 263.676 151.411"
	 xml:space="preserve">
<g id="fish">
    <path fill="#32FF00" d="M228.6 205.2c19.7 2.7 34.4 13.5 34.4 26.4 0 14.9-19.8 27.1-44.3 27.1 -10.2 0-25.3-4.4-32.8-8 -15-7.2-17.4-12.2-19.4-15l-23.6 20.4c0-0.2 4.6-12.5 4.6-26.5 0-7-2-22.2-4.6-31.2l25.6 20.1c-1 1.5 6-3.9 20.9-9.5 5.7-2.2 12.7-3.5 20.1-4 3-0.2 6.1-0.3 9.2-0.3C222.1 204.5 225.4 204.7 228.6 205.2zM209.5 204.5c-3-1.6-4.9-3.9-9.9-7.7 13.1-2.3 23.2 3.1 28.9 8.3l0 0.1c-3.2-0.4-6.5-0.7-9.8-0.7 -3.1 0-6.2 0.1-9.2 0.3L209.5 204.5z"/>
    <path fill="none" stroke="#000000" stroke-width="3" stroke-miterlimit="10" d="M168.6 218.4c-1 1.5 6-3.9 20.9-9.5 5.7-2.2 12.7-3.5 20.1-4 3-0.2 6.1-0.3 9.2-0.3 3.4 0 6.7 0.2 9.8 0.7 19.7 2.7 34.4 13.5 34.4 26.4 0 14.9-19.8 27.1-44.3 27.1 -10.2 0-25.3-4.4-32.8-8 -15-7.2-17.4-12.2-19.4-15"/>
    <line fill="none" stroke="#000000" stroke-width="3" stroke-miterlimit="10" x1="168.6" y1="218.4" x2="143" y2="198.3"/>
    <line fill="none" stroke="#000000" stroke-width="3" stroke-miterlimit="10" x1="166.5" y1="235.7" x2="143" y2="256.1"/>
    <path fill="none" stroke="#000000" stroke-width="3" stroke-miterlimit="10" d="M143 256.1c0 0 0 0 0 0 0-0.2 4.6-12.5 4.6-26.5 0-7-2-22.2-4.6-31.2M228.6 205.1c-5.7-5.3-15.9-10.7-28.9-8.3M199.6 196.8c4.9 3.9 6.8 6.1 9.9 7.7M209.4 241.6c-4.6 4.4-9.7 12.4 4.9 11.9 14.6-0.5 19.1-10.8 19.1-11.9M225.4 226.7c0.3-4.6-1.9-9-9.2-11.1M231.8 226.4c0.3-4.6-1.9-9-9.2-11.1M219.4 226.7c0.3-4.6-1.9-9-9.2-11.1"/>
    <g id="fish_face">
       <path fill="none" stroke="#000000" stroke-width="3" stroke-miterlimit="10" d="M237.7 235.5c0 6.1 6.4 7.9 23 5.5"/>
       <ellipse stroke="#000000" stroke-width="3" stroke-miterlimit="10" cx="249.2" cy="224" rx="4.1" ry="3.1"/>
    </g>
  </g>
</svg>
